HIERARCHY
ROOT Hips
{
	OFFSET -0.188156 90.755500 -2.367270
	CHANNELS 6 Xposition Yposition Zposition Zrotation Yrotation Xrotation 
	JOINT Spine
	{
		OFFSET 0.000000 9.923500 -1.227300
		CHANNELS 3 Zrotation Yrotation Xrotation
		JOINT Spine1
		{
			OFFSET -0.000100 11.645400 -1.422300
			CHANNELS 3 Zrotation Yrotation Xrotation
			JOINT Spine2
			{
				OFFSET 0.000100 13.360200 -1.626500
				CHANNELS 3 Zrotation Yrotation Xrotation
				JOINT Neck
				{
					OFFSET 0.000000 15.032500 0.792900
					CHANNELS 3 Zrotation Yrotation Xrotation
					JOINT Head
					{
						OFFSET 0.000000 10.321800 3.142400
						CHANNELS 3 Zrotation Yrotation Xrotation
						JOINT HeadTop_End
						{
							OFFSET 0.000200 18.474700 6.636400
							CHANNELS 3 Zrotation Yrotation Xrotation
							End Site
							{
								OFFSET 0.000000 0.000000 0.000000
							}
						}
						JOINT LeftEye
						{
							OFFSET 2.947900 7.681700 9.120700
							CHANNELS 3 Zrotation Yrotation Xrotation
							End Site
							{
								OFFSET 0.000000 0.000000 0.000000
							}
						}
						JOINT RightEye
						{
							OFFSET -2.944500 7.681700 9.120500
							CHANNELS 3 Zrotation Yrotation Xrotation
							End Site
							{
								OFFSET 0.000000 0.000000 0.000000
							}
						}
					}
				}
				JOINT LeftShoulder
				{
					OFFSET 6.105800 9.110400 0.705600
					CHANNELS 3 Zrotation Yrotation Xrotation
					JOINT LeftArm
					{
						OFFSET 12.655000 -0.265900 -2.600900
						CHANNELS 3 Zrotation Yrotation Xrotation
						JOINT LeftForeArm
						{
							OFFSET 27.404700 0.000000 0.000000
							CHANNELS 3 Zrotation Yrotation Xrotation
							JOINT LeftHand
							{
								OFFSET 27.614500 0.000000 0.000000
								CHANNELS 3 Zrotation Yrotation Xrotation
								JOINT LeftHandMiddle1
								{
									OFFSET 12.775500 0.000000 0.000000
									CHANNELS 3 Zrotation Yrotation Xrotation
									JOINT LeftHandMiddle2
									{
										OFFSET 3.614000 0.000000 0.000000
										CHANNELS 3 Zrotation Yrotation Xrotation
										JOINT LeftHandMiddle3
										{
											OFFSET 3.459800 0.000000 0.000000
											CHANNELS 3 Zrotation Yrotation Xrotation
											End Site
											{
												OFFSET 0.000000 0.000000 0.000000
											}
										}
									}
								}
								JOINT LeftHandThumb1
								{
									OFFSET 3.788800 -2.167000 3.003100
									CHANNELS 3 Zrotation Yrotation Xrotation
									JOINT LeftHandThumb2
									{
										OFFSET 3.675400 -2.122000 2.122000
										CHANNELS 3 Zrotation Yrotation Xrotation
										JOINT LeftHandThumb3
										{
											OFFSET 3.394400 -1.959700 1.959800
											CHANNELS 3 Zrotation Yrotation Xrotation
											End Site
											{
												OFFSET 0.000000 0.000000 0.000000
											}
										}
									}
								}
								JOINT LeftHandIndex1
								{
									OFFSET 12.266600 -0.231700 2.822100
									CHANNELS 3 Zrotation Yrotation Xrotation
									JOINT LeftHandIndex2
									{
										OFFSET 3.892000 0.000000 0.000000
										CHANNELS 3 Zrotation Yrotation Xrotation
										JOINT LeftHandIndex3
										{
											OFFSET 3.415200 0.000000 0.000000
											CHANNELS 3 Zrotation Yrotation Xrotation
											End Site
											{
												OFFSET 0.000000 0.000000 0.000000
											}
										}
									}
								}
								JOINT LeftHandRing1
								{
									OFFSET 12.147000 0.009900 -2.216600
									CHANNELS 3 Zrotation Yrotation Xrotation
									JOINT LeftHandRing2
									{
										OFFSET 3.601200 0.000000 0.000000
										CHANNELS 3 Zrotation Yrotation Xrotation
										JOINT LeftHandRing3
										{
											OFFSET 3.307300 0.000000 0.000000
											CHANNELS 3 Zrotation Yrotation Xrotation
											End Site
											{
												OFFSET 0.000000 0.000000 0.000000
											}
										}
									}
								}
								JOINT LeftHandPinky1
								{
									OFFSET 10.908200 -0.226400 -4.725800
									CHANNELS 3 Zrotation Yrotation Xrotation
									JOINT LeftHandPinky2
									{
										OFFSET 4.136700 0.000000 0.000000
										CHANNELS 3 Zrotation Yrotation Xrotation
										JOINT LeftHandPinky3
										{
											OFFSET 2.594800 0.000000 0.000000
											CHANNELS 3 Zrotation Yrotation Xrotation
											End Site
											{
												OFFSET 0.000000 0.000000 0.000000
											}
										}
									}
								}
							}
						}
					}
				}
				JOINT RightShoulder
				{
					OFFSET -6.105700 9.110500 0.705600
					CHANNELS 3 Zrotation Yrotation Xrotation
					JOINT RightArm
					{
						OFFSET -12.655000 -0.266000 -2.600900
						CHANNELS 3 Zrotation Yrotation Xrotation
						JOINT RightForeArm
						{
							OFFSET -27.404700 0.000000 0.000000
							CHANNELS 3 Zrotation Yrotation Xrotation
							JOINT RightHand
							{
								OFFSET -27.614500 0.000000 0.000000
								CHANNELS 3 Zrotation Yrotation Xrotation
								JOINT RightHandMiddle1
								{
									OFFSET -12.775500 0.000000 0.000000
									CHANNELS 3 Zrotation Yrotation Xrotation
									JOINT RightHandMiddle2
									{
										OFFSET -3.614000 0.000000 0.000000
										CHANNELS 3 Zrotation Yrotation Xrotation
										JOINT RightHandMiddle3
										{
											OFFSET -3.459800 0.000000 0.000000
											CHANNELS 3 Zrotation Yrotation Xrotation
											End Site
											{
												OFFSET 0.000000 0.000000 0.000000
											}
										}
									}
								}
								JOINT RightHandThumb1
								{
									OFFSET -3.788800 -2.167000 3.003100
									CHANNELS 3 Zrotation Yrotation Xrotation
									JOINT RightHandThumb2
									{
										OFFSET -3.675400 -2.122000 2.122000
										CHANNELS 3 Zrotation Yrotation Xrotation
										JOINT RightHandThumb3
										{
											OFFSET -3.394400 -1.959700 1.959800
											CHANNELS 3 Zrotation Yrotation Xrotation
											End Site
											{
												OFFSET 0.000000 0.000000 0.000000
											}
										}
									}
								}
								JOINT RightHandIndex1
								{
									OFFSET -12.266600 -0.231700 2.822100
									CHANNELS 3 Zrotation Yrotation Xrotation
									JOINT RightHandIndex2
									{
										OFFSET -3.892000 0.000000 0.000000
										CHANNELS 3 Zrotation Yrotation Xrotation
										JOINT RightHandIndex3
										{
											OFFSET -3.415200 0.000000 0.000000
											CHANNELS 3 Zrotation Yrotation Xrotation
											End Site
											{
												OFFSET 0.000000 0.000000 0.000000
											}
										}
									}
								}
								JOINT RightHandRing1
								{
									OFFSET -12.147000 0.009900 -2.216600
									CHANNELS 3 Zrotation Yrotation Xrotation
									JOINT RightHandRing2
									{
										OFFSET -3.601200 0.000000 0.000000
										CHANNELS 3 Zrotation Yrotation Xrotation
										JOINT RightHandRing3
										{
											OFFSET -3.307300 0.000000 0.000000
											CHANNELS 3 Zrotation Yrotation Xrotation
											End Site
											{
												OFFSET 0.000000 0.000000 0.000000
											}
										}
									}
								}
								JOINT RightHandPinky1
								{
									OFFSET -10.908200 -0.226400 -4.725800
									CHANNELS 3 Zrotation Yrotation Xrotation
									JOINT RightHandPinky2
									{
										OFFSET -4.136700 0.000000 0.000000
										CHANNELS 3 Zrotation Yrotation Xrotation
										JOINT RightHandPinky3
										{
											OFFSET -2.594800 0.000000 0.000000
											CHANNELS 3 Zrotation Yrotation Xrotation
											End Site
											{
												OFFSET 0.000000 0.000000 0.000000
											}
										}
									}
								}
							}
						}
					}
				}
			}
		}
	}
	JOINT RightUpLeg
	{
		OFFSET -9.124500 -6.656400 -0.055400
		CHANNELS 3 Zrotation Yrotation Xrotation
		JOINT RightLeg
		{
			OFFSET -0.244700 -40.595400 -0.514500
			CHANNELS 3 Zrotation Yrotation Xrotation
			JOINT RightFoot
			{
				OFFSET 0.244700 -42.047900 -2.060200
				CHANNELS 3 Zrotation Yrotation Xrotation
				JOINT RightToeBase
				{
					OFFSET -0.373400 -10.492200 12.640700
					CHANNELS 3 Zrotation Yrotation Xrotation
					End Site
					{
						OFFSET 0.000000 0.000000 0.000000
					}
				}
			}
		}
	}
	JOINT LeftUpLeg
	{
		OFFSET 9.124500 -6.656400 -0.055400
		CHANNELS 3 Zrotation Yrotation Xrotation
		JOINT LeftLeg
		{
			OFFSET 0.244700 -40.595400 -0.517000
			CHANNELS 3 Zrotation Yrotation Xrotation
			JOINT LeftFoot
			{
				OFFSET -0.244700 -42.048000 -2.057600
				CHANNELS 3 Zrotation Yrotation Xrotation
				JOINT LeftToeBase
				{
					OFFSET 0.373400 -10.492200 12.640700
					CHANNELS 3 Zrotation Yrotation Xrotation
					End Site
					{
						OFFSET 0.000000 0.000000 0.000000
					}
				}
			}
		}
	}
}
MOTION
Frames: 4
Frame Time: 0.016667
-0.188156 90.755500 -2.367270 3.740702 8.020895 2.453708 -0.377101 -1.374496 8.294543 -0.747907 -2.769656 16.603456 -0.747912 -2.769665 16.603456 -3.811788 2.560034 -5.863542 7.922728 -5.813539 -25.914697 0.000000 0.000000 -0.000000 0.000000 0.000000 -0.000000 0.000000 0.000000 -0.000000 -5.486843 1.691715 0.241087 -77.364085 -42.579114 60.373283 -0.000622 -69.705475 0.961613 -1.517167 14.661882 44.440049 -33.750265 -1.736670 -4.446797 -35.118521 -1.538002 0.403142 0.000000 -0.000000 0.000000 -5.957490 14.377336 2.134014 2.226385 9.255179 3.597939 -0.000100 -0.001106 -0.000577 -18.859919 -2.978954 -10.584267 -22.920973 1.992610 -0.039501 -0.000002 -0.000007 -0.000004 -40.551346 1.775794 -2.049765 -40.412540 -2.660107 0.573990 -0.000000 0.000000 -0.000001 -51.103110 0.985412 2.968089 -48.990564 -7.807921 3.485322 0.000002 0.000002 0.000005 5.621050 3.052322 0.878846 62.589180 30.135823 42.563714 179.998595 76.623696 -178.702991 27.547849 -19.064193 26.844961 28.013197 -4.454095 -3.009046 49.348820 2.764036 1.115928 0.000001 0.000001 0.000002 20.576553 8.742060 30.050338 0.548524 -1.634620 0.344438 0.000092 0.001094 -0.000587 17.166910 -5.447618 -12.863087 30.433533 -1.695844 -0.541751 -0.000000 0.000000 0.000000 40.108870 -7.806810 -3.958738 62.159035 2.784965 1.013217 0.000010 -0.000006 -0.000001 52.845066 -13.793403 -2.212546 64.784732 5.837114 3.497457 0.000001 0.000001 0.000001 -0.821402 -6.796537 -29.213807 2.138227 -1.206591 59.912220 5.717136 -16.574738 -25.223948 -0.557900 -0.013952 -5.298260 1.456748 2.468475 -29.370217 -1.761432 1.625689 69.523169 -14.132998 16.263352 -24.625392 0.002994 -0.004470 -0.737290 
-0.178541 91.284900 -0.227280 3.546920 8.288186 2.867262 -0.302750 -1.248273 8.236898 -0.616767 -2.476553 16.484435 -0.616768 -2.476553 16.484435 -3.390425 2.846295 -4.862884 7.618665 -6.041776 -25.190201 -0.000000 0.000000 -0.000000 -0.000000 0.000000 -0.000000 -0.000000 0.000000 -0.000000 -5.785266 1.424306 0.253599 -75.391824 -43.548102 59.635230 -0.000631 -70.449458 1.051358 -2.841651 15.234457 42.606767 -33.750264 -1.736680 -4.446797 -35.118420 -1.538012 0.403130 -0.000000 -0.000000 -0.000000 -5.957483 14.377336 2.134003 2.226368 9.255149 3.597908 -0.000100 -0.001106 -0.000577 -18.859919 -2.978954 -10.584267 -22.920973 1.992610 -0.039478 -0.000002 -0.000007 -0.000004 -40.551347 1.775804 -2.049775 -40.412541 -2.660097 0.574005 0.000000 0.000000 -0.000001 -51.103111 0.985397 2.968069 -48.990663 -7.807911 3.485321 0.000002 0.000002 0.000005 5.503055 3.144434 0.886562 62.697793 31.205372 42.937207 179.998517 76.966800 -178.707981 25.853623 -18.784909 27.308545 28.013196 -4.454095 -3.009026 49.348820 2.764036 1.115938 0.000001 0.000001 0.000002 20.576553 8.742060 30.050338 0.548532 -1.634620 0.344434 0.000092 0.001094 -0.000587 17.166910 -5.447618 -12.863087 30.433533 -1.695834 -0.541768 0.000000 -0.000000 0.000000 40.108869 -7.806820 -3.958728 62.159036 2.784965 1.013237 0.000010 -0.000006 -0.000001 52.845061 -13.793403 -2.212526 64.784731 5.837104 3.497456 0.000001 0.000001 0.000001 -0.634440 -7.018662 -27.629411 2.101273 -1.171416 58.784855 6.223401 -15.992684 -24.751233 -0.943596 0.075943 -6.349456 0.898163 2.251092 -30.770624 -1.766633 1.507247 66.660501 -13.498909 15.549831 -25.655001 -0.455124 1.114138 -2.077153 
-0.122206 91.857400 1.940050 3.384895 8.550900 3.231974 -0.229895 -1.135023 8.202170 -0.492094 -2.212088 16.412076 -0.492094 -2.212088 16.412076 -2.929448 3.209471 -4.496828 7.055991 -6.136329 -24.103891 0.000000 0.000000 0.000000 0.000000 0.000000 0.000000 0.000000 0.000000 0.000000 -6.017780 1.209387 0.269125 -73.559495 -44.585380 58.984141 -0.000695 -71.034203 1.205352 -3.367578 15.631193 40.977918 -33.750265 -1.736670 -4.446797 -35.118420 -1.538002 0.403120 -0.000000 -0.000000 0.000000 -5.957477 14.377336 2.134024 2.226370 9.255159 3.597919 -0.000100 -0.001106 -0.000577 -18.859919 -2.978954 -10.584267 -22.920973 1.992600 -0.039487 -0.000002 -0.000007 -0.000004 -40.551346 1.775804 -2.049755 -40.412540 -2.660097 0.573988 -0.000000 -0.000000 -0.000001 -51.103110 0.985414 2.968089 -48.990563 -7.807931 3.485312 0.000002 0.000002 0.000005 5.485659 3.248601 0.898463 62.568289 32.376565 43.269492 179.998566 77.313885 -178.709193 24.160917 -18.367967 27.607429 28.013197 -4.454095 -3.009046 49.348819 2.764026 1.115918 0.000001 0.000001 0.000002 20.576553 8.742060 30.050338 0.548514 -1.634620 0.344452 0.000092 0.001094 -0.000587 17.166910 -5.447618 -12.863087 30.433533 -1.695824 -0.541767 0.000000 0.000000 -0.000000 40.108871 -7.806830 -3.958739 62.159036 2.784985 1.013227 0.000010 -0.000006 -0.000001 52.844964 -13.793403 -2.212536 64.784731 5.837094 3.497466 0.000001 0.000001 0.000001 -0.527640 -7.184998 -25.894210 2.060166 -1.129138 57.451127 6.537472 -15.361041 -23.969143 -1.219653 0.217524 -7.529985 0.249464 2.035158 -31.914105 -1.759430 1.374593 63.428048 -12.278548 15.055532 -26.428748 -0.417339 1.485443 -3.791736 
0.073038 92.564600 4.189630 3.297605 8.828770 3.442770 -0.158045 -1.063770 8.253252 -0.375242 -2.034532 16.512307 -0.375242 -2.034532 16.512307 -2.462672 3.613707 -4.473483 6.331846 -6.140603 -22.840090 0.000000 0.000000 0.000000 0.000000 0.000000 0.000000 0.000000 0.000000 0.000000 -6.026540 1.191765 0.283178 -72.272116 -45.800142 58.689665 -0.000636 -71.159768 1.259592 -3.126791 15.678320 39.722401 -33.750263 -1.736690 -4.446787 -35.118520 -1.538002 0.403127 0.000000 -0.000000 0.000000 -5.957494 14.377236 2.134013 2.226380 9.255149 3.597918 -0.000100 -0.001106 -0.000577 -18.859919 -2.978954 -10.584267 -22.920974 1.992570 -0.039510 -0.000002 -0.000007 -0.000004 -40.551346 1.775784 -2.049755 -40.412540 -2.660097 0.573990 0.000000 0.000000 -0.000001 -51.103110 0.985395 2.968099 -48.990663 -7.807931 3.485312 0.000002 0.000002 0.000005 5.732682 3.334282 0.919120 61.785167 33.923872 43.494077 179.998454 77.658931 -178.702064 22.438411 -17.601653 27.391143 28.013197 -4.454105 -3.009036 49.348820 2.764036 1.115928 0.000001 0.000001 0.000002 20.576553 8.742060 30.050338 0.548512 -1.634620 0.344441 0.000092 0.001094 -0.000587 17.166910 -5.447618 -12.863087 30.433532 -1.695824 -0.541740 0.000000 0.000000 0.000000 40.108873 -7.806809 -3.958759 62.159036 2.784975 1.013237 0.000010 -0.000006 -0.000001 52.844966 -13.793403 -2.212546 64.784731 5.837104 3.497456 0.000001 0.000001 0.000001 -0.638417 -7.202222 -23.656689 2.006779 -1.062366 55.460006 6.357764 -14.636672 -22.324461 -1.203157 0.587337 -9.712665 -0.656460 1.756190 -32.324128 -1.725684 1.204414 59.135274 -8.953477 15.307046 -26.453283 1.242417 -0.520472 -7.074983 
